PathFileType	3	(X/Y/Z)	D:\minhoCalibration\240510\subject5_KPNP\preferred\preferred03.trc
DataRate	CameraRate	NumFrames	NumMarkers	Units	OrigDataRate	OrigDataStartFrame	OrigNumFrames
200.0	200.0	12	10	mm	200.0	412	191	
Frame#	Time	Left_Ankle_Outer1			Left_Ankle_Inner1			Left_Knee_Outer1			Left_Knee_Inner1			Left_Wrist1			Right_Wrist1			Right_Knee_Inner1			Right_Knee_Outer1			Right_Ankle_Inner1			Right_Ankle_Outer1			
		X1	Y1	Z1	X2	Y2	Z2	X3	Y3	Z3	X4	Y4	Z4	X5	Y5	Z5	X6	Y6	Z6	X7	Y7	Z7	X8	Y8	Z8	X9	Y9	Z9	X10	Y10	Z10	
412	2.05	-575.67255	81.146713	-603.78931	-606.10632	92.429588	-561.55927	-412.66058	528.71356	-564.09686	-480.09155	518.50208	-495.98859	-368.49698	1009.3311	-651.57141	-641.98999	1117.3567	-488.28195	-614.76672	629.80847	-242.75798	-686.46478	681.96588	-230.39371	-723.05438	204.82487	-181.31303	-812.94849	231.7025	-202.29721
413	2.055	-575.35175	81.044983	-604.26685	-605.19324	92.098915	-563.38373	-412.77408	528.83295	-564.09088	-481.06497	518.23645	-498.46017	-366.83041	1010.5145	-650.42035	-644.61133	1113.7543	-493.64246	-618.16168	623.24469	-251.70529	-689.85919	674.86115	-239.90913	-725.24469	196.66528	-199.62166	-814.40344	223.2899	-222.40634
414	2.06	-574.83411	80.93129	-604.9801	-605.15906	92.217834	-563.79199	-412.81818	528.91534	-564.12354	-482.04895	518.47803	-499.61972	-365.42844	1011.5516	-649.07214	-647.05884	1110.3982	-498.61761	-621.29132	616.72876	-260.79413	-693.66644	667.98047	-249.06624	-726.96625	188.71611	-218.26958	-815.64508	215.31577	-242.76529
415	2.065	-574.23346	80.666656	-605.64581	-604.80859	92.054527	-564.66205	-413.09167	528.91211	-563.86902	-482.85971	519.20215	-498.88251	-364.17151	1012.4617	-647.65784	-650.6438	1106.0366	-505.53568	-623.97296	610.16052	-269.29987	-696.93347	661.15295	-258.76846	-728.43683	181.1973	-237.09692	-816.58563	207.63686	-263.36777
416	2.07	-573.50775	80.284721	-606.47168	-604.84363	91.858994	-565.40747	-412.99667	529.06042	-563.86066	-484.13724	518.7605	-501.64377	-363.1572	1013.225	-646.15387	-651.97369	1103.106	-506.33545	-626.87427	603.88062	-278.45581	-700.31598	654.17352	-268.55234	-729.9361	174.1046	-255.64885	-817.33484	200.38876	-284.12531
417	2.075	-572.69574	79.949684	-607.35321	-603.85162	91.710274	-567.33582	-413.01276	529.04327	-563.69946	-485.17621	518.80872	-502.87741	-362.23395	1013.9624	-644.68439	-653.12518	1100.3228	-509.3938	-629.7951	597.81213	-287.71484	-703.3692	647.70575	-278.59723	-731.48236	167.57774	-274.63217	-817.83893	193.58383	-304.9856
418	2.08	-572.03589	79.451111	-608.198	-604.03345	91.510757	-567.75	-413.24429	528.92145	-563.30328	-486.3869	519.0531	-503.96567	-361.49091	1014.5706	-643.12335	-655.22174	1096.8424	-514.75916	-632.46429	591.93109	-297.1008	-706.78888	641.48383	-288.14978	-732.28705	160.88191	-293.71631	-818.06989	187.13422	-325.96829
419	2.085	-571.49335	79.004295	-608.85748	-604.50562	90.257202	-571.31744	-413.21082	528.94171	-563.07312	-487.50082	518.93353	-505.0499	-360.7298	1015.2028	-641.65112	-657.23889	1094.748	-515.82635	-634.43988	586.26031	-305.77927	-709.30066	635.20282	-298.88159	-732.93097	154.81796	-312.79913	-818.0285	181.0869	-346.96634
420	2.09	-570.98474	78.706299	-609.38031	-603.49237	91.095863	-568.85608	-413.3812	528.77649	-562.71844	-488.59552	518.87317	-506.17975	-360.10043	1015.7403	-640.16107	-658.45892	1092.9291	-517.24652	-637.17694	580.82495	-316.05948	-712.24249	629.12921	-309.12543	-733.75208	149.01424	-331.69165	-818.37775	175.78729	-368.74582
421	2.095	-570.63959	78.497704	-609.81946	-602.57812	91.492447	-568.54474	-413.54614	528.6524	-562.37878	-489.61191	518.85272	-507.11655	-359.46182	1016.1493	-638.75299	-660.47559	1090.3334	-520.86041	-639.33417	575.664	-325.81787	-714.55414	623.43268	-319.81863	-734.34265	143.55511	-350.64676	-817.26746	170.36501	-389.03238
422	2.1	-570.58228	78.299278	-610.06891	-602.46857	91.449623	-569.0788	-413.83163	528.48199	-562.23035	-490.75311	518.91547	-508.01468	-358.93005	1016.5671	-637.29376	-662.38953	1088.1727	-521.85345	-640.99872	570.78979	-334.71497	-717.18372	618.0636	-330.11169	-734.61865	138.38254	-369.57306	-816.5274	165.78519	-410.05759
423	2.105	-570.50537	78.049118	-610.21832	-603.07947	90.579933	-570.03235	-414.22711	528.37384	-561.92767	-491.59311	518.91028	-508.45767	-358.61298	1017.0572	-635.66974	-669.91107	1086.3877	-530.50201	-642.88562	566.1637	-344.36151	-719.25543	612.86658	-340.89798	-734.95862	133.51926	-389.29163	-815.50616	161.49873	-431.10757
